PathFileType	4	(X/Y/Z)	Kaydara	
DataRate	CameraRate	NumFrames	NumMarkers	Units	OrigDataRate	OrigDataStartFrame	OrigNumFrames	
60.00	60.00	4	74	mm	60.00	681	134	
Frame#	Time	Z_lasi			Z_rasi			Z_rpsi			Z_lpsi			Z_fneck			Z_bneck			Z_fhead			Z_lhead			Z_rshld			Z_relbtop			Z_relbext			Z_relblow			Z_rwrext			Z_rwrtop			Z_rwrlow			Z_lshld			Z_lelbext			Z_lelblow			Z_lelbtop			Z_lwrext			Z_lwrtop			Z_lwrlow			Z_rtopleg			Z_rkneefr			Z_rkneebk			Z_rkneeis			Z_lkneefr			Z_lknssbk			Z_lkneeis			Z_rankfr			Z_rankis			Z_rankbk			Z_lankfr			Z_lankbk			Z_lankis			Z_rhead			Z_ltopleg			N_rpsi			N_lpsi			N_fneck			N_bneck			N_fhead			N_rhead			N_lhead			N_rshld			N_relbtop			N_relbext			N_relblow			N_rwrext			N_rwrtop			N_rwrlow			N_lshld			N_lelbext			N_lelblow			N_lelbtop			N_lwrext			N_lwrtop			N_lwrlow			N_rtopleg			N_ltopleg			N_rkneefr			N_rkneebk			N_rkneeis			N_lkneefr			N_lknssbk			N_lkneeis			N_rankfr			N_rankis			N_rankbk			N_lankfr			N_lankbk			N_lankis			N_lasi			N_rasi			
		X1	Y1	Z1	X2	Y2	Z2	X3	Y3	Z3	X4	Y4	Z4	X5	Y5	Z5	X6	Y6	Z6	X7	Y7	Z7	X8	Y8	Z8	X9	Y9	Z9	X10	Y10	Z10	X11	Y11	Z11	X12	Y12	Z12	X13	Y13	Z13	X14	Y14	Z14	X15	Y15	Z15	X16	Y16	Z16	X17	Y17	Z17	X18	Y18	Z18	X19	Y19	Z19	X20	Y20	Z20	X21	Y21	Z21	X22	Y22	Z22	X23	Y23	Z23	X24	Y24	Z24	X25	Y25	Z25	X26	Y26	Z26	X27	Y27	Z27	X28	Y28	Z28	X29	Y29	Z29	X30	Y30	Z30	X31	Y31	Z31	X32	Y32	Z32	X33	Y33	Z33	X34	Y34	Z34	X35	Y35	Z35	X36	Y36	Z36	X37	Y37	Z37	X38	Y38	Z38	X39	Y39	Z39	X40	Y40	Z40	X41	Y41	Z41	X42	Y42	Z42	X43	Y43	Z43	X44	Y44	Z44	X45	Y45	Z45	X46	Y46	Z46	X47	Y47	Z47	X48	Y48	Z48	X49	Y49	Z49	X50	Y50	Z50	X51	Y51	Z51	X52	Y52	Z52	X53	Y53	Z53	X54	Y54	Z54	X55	Y55	Z55	X56	Y56	Z56	X57	Y57	Z57	X58	Y58	Z58	X59	Y59	Z59	X60	Y60	Z60	X61	Y61	Z61	X62	Y62	Z62	X63	Y63	Z63	X64	Y64	Z64	X65	Y65	Z65	X66	Y66	Z66	X67	Y67	Z67	X68	Y68	Z68	X69	Y69	Z69	X70	Y70	Z70	X71	Y71	Z71	X72	Y72	Z72	X73	Y73	Z73	X74	Y74	Z74	

51	11.333	-1054.29085	966.48720	568.49701	-947.62421	982.15401	780.56747	-1134.17160	1043.93204	833.41064	-1219.37340	1032.48611	657.14005	-953.93845	1433.71399	596.10390	-1043.36060	1501.43753	649.40666	-841.81778	1599.80118	581.03031	-998.56865	1613.48969	693.40538	-870.06203	1389.48837	790.25696	-737.92328	1161.86172	768.95882	-780.37926	1101.37413	763.65379	-756.08223	1152.65991	694.40125	-567.57263	1025.07317	605.41946	-537.85492	1055.98251	620.06241	-548.01624	1088.80363	588.80501	-1150.09529	1389.12918	489.10320	-1182.03255	1077.29897	535.69534	-1182.16377	1104.33197	447.32929	-1245.14938	1077.14149	495.42114	-1154.76982	878.20503	418.64098	-1122.13570	897.93777	399.50153	-1095.05981	895.82954	436.46828	-1002.83554	874.19540	869.33281	-969.78996	403.44322	736.64055	-1018.04749	431.54980	807.78175	-1054.44366	435.14267	695.23315	-981.32263	415.46631	536.76922	-1064.31236	430.85152	525.89565	-1015.33028	440.22640	637.55417	-1060.14420	154.97482	720.90347	-1134.98962	169.30593	691.22803	-1125.42671	154.87101	762.84454	-1046.51688	159.06363	568.95596	-1040.74600	160.72716	634.51790	-975.27969	172.16684	603.54019	-1027.73865	1607.43530	567.84302	-1157.30637	906.12206	555.30273	61.85339	1037.46506	267.92665	169.24971	1079.06235	482.79549	-148.43298	1465.37384	402.47036	-62.50514	1540.88562	321.23829	-255.18961	1696.66718	342.44587	-118.02223	1638.70392	251.10718	-101.65781	1688.26950	401.95919	-186.75573	1395.19638	199.88796	-278.44013	1101.48926	249.92207	-220.93044	1095.78911	307.17218	-300.46862	1149.27727	303.27030	-421.53500	1017.05460	465.59597	-455.82443	1054.49890	453.33935	-440.64209	1090.60364	476.36356	42.50504	1511.70944	556.31126	205.84656	1225.51247	608.52730	137.24530	1286.89728	566.36349	149.84049	1269.79752	669.38789	-62.91039	1198.05099	614.05117	-72.48606	1248.99651	625.86079	-62.47103	1264.88945	581.81271	-76.59866	875.96474	249.62475	86.88132	906.71974	623.07056	-220.51901	465.12890	334.14948	-122.58222	488.06824	267.08630	-112.37028	448.70628	375.94105	-33.37690	444.62204	528.92033	40.69494	465.10841	451.10771	62.87668	472.07512	569.82010	-223.09586	166.05516	277.32859	-158.57884	153.40695	307.63430	-178.35457	159.91239	230.61785	27.86852	128.87537	522.94010	88.84807	137.76357	450.05970	14.26187	139.60679	453.73306	-16.36090	1019.75906	586.45859	-141.93044	982.96074	401.83201 
52	11.350	-1050.37148	967.08382	567.29176	-944.65958	982.94182	780.08698	-1131.66306	1044.89830	831.36642	-1215.88577	1034.00146	654.80095	-951.44310	1434.81598	592.06867	-1041.28227	1501.88553	644.98428	-840.80727	1601.58020	576.59233	-997.18369	1614.35501	689.49501	-868.45924	1393.44406	787.83104	-735.58029	1166.02043	770.74959	-776.70097	1104.49875	766.91856	-753.64098	1155.92751	696.68579	-563.49171	1035.39131	605.81364	-534.42322	1067.26830	620.10727	-545.59349	1099.35822	588.66253	-1146.16348	1387.54150	484.33205	-1175.01549	1075.27657	531.81145	-1173.58574	1101.90643	443.11119	-1237.38144	1075.63286	490.33539	-1150.10254	874.99435	415.14065	-1116.71280	893.91624	396.58092	-1090.78384	891.33186	434.59461	-999.85329	875.16090	868.32855	-963.71719	404.13803	736.27251	-1012.78831	432.84218	806.79230	-1047.99362	436.45958	694.25690	-979.26231	415.77847	537.40387	-1061.96724	431.43749	527.25399	-1011.49071	440.89222	638.97678	-1057.34840	156.61184	720.62515	-1131.74568	171.82060	690.06287	-1122.87613	157.27371	761.79138	-1045.31898	159.42606	569.50119	-1038.60619	160.81125	634.88201	-973.84727	171.96198	603.70422	-1026.91269	1608.28979	564.04591	-1154.09485	906.70334	554.87499	51.52443	1037.65236	262.41190	163.26721	1079.93736	475.15743	-157.43048	1464.05350	399.59881	-72.24306	1539.49738	317.35308	-266.80557	1694.71558	341.08253	-129.62679	1638.26874	248.58738	-111.98770	1687.09244	398.09059	-196.96636	1390.51529	197.55686	-275.13191	1092.20070	246.27428	-217.60786	1089.24202	303.07236	-298.93610	1141.11855	298.68462	-418.68885	1022.62405	466.92543	-452.21096	1059.88266	452.79953	-436.54007	1097.33139	473.26862	35.39516	1511.38412	551.69796	200.10489	1225.19905	597.96078	132.49825	1286.76636	557.47124	146.08806	1269.84909	662.17003	-67.61201	1197.70760	611.33408	-77.25668	1248.57635	623.49094	-67.87134	1264.52370	579.11514	-86.16018	875.81482	247.00241	83.76768	907.75024	617.64423	-227.37528	463.69801	334.04762	-130.47494	488.07983	265.93891	-118.49589	449.52175	375.38738	-35.36165	444.67735	527.71084	37.68945	465.16148	448.87344	61.32390	472.84813	567.12540	-221.91845	163.80161	276.03233	-156.88310	153.38607	306.16943	-175.84787	159.77091	229.97328	27.94814	129.28756	522.84119	88.34070	138.13667	449.37317	13.91380	139.46810	453.65852	-20.49748	1020.52208	582.89333	-149.11671	982.31445	400.50537 
53	11.367	-1046.68320	968.21487	564.99512	-941.34476	983.93753	778.41606	-1128.14247	1046.53053	829.62029	-1212.63412	1035.52917	653.70453	-949.20311	1435.99045	587.60418	-1038.99803	1502.59674	640.48027	-839.69322	1603.42468	571.72443	-995.94101	1615.19440	685.25154	-866.58211	1397.41669	785.75829	-733.85506	1169.91989	773.49831	-773.41820	1107.40463	771.79893	-752.13699	1158.70949	700.26863	-560.98640	1045.67337	606.62281	-532.69073	1078.75023	620.06104	-545.50331	1109.98207	588.01575	-1142.42836	1386.22086	480.14645	-1168.03772	1073.79883	528.48236	-1165.69557	1100.17479	439.69288	-1230.04356	1074.40125	486.21204	-1145.94749	872.79541	411.81004	-1111.72806	890.93895	393.63144	-1086.40648	887.78168	432.02671	-996.08902	876.46896	866.97998	-956.83609	405.22266	736.54961	-1006.55602	434.41605	806.32927	-1040.87952	438.14240	693.65280	-977.35817	416.63967	537.27417	-1060.05371	432.68555	528.31291	-1008.67477	441.39812	639.74739	-1054.08104	158.71175	720.46837	-1127.95128	174.89908	689.17465	-1119.87732	160.28965	760.92674	-1045.07179	159.77301	569.61906	-1038.17154	161.12463	635.19428	-973.31696	172.02414	603.63770	-1025.87036	1609.15894	559.89746	-1153.25058	898.91693	559.13624	41.53419	1038.12057	256.81885	157.09085	1080.95642	467.43534	-166.96009	1463.72177	397.40936	-82.51310	1539.09760	314.15005	-278.36308	1692.76443	339.69109	-141.53364	1637.73209	245.93859	-123.12515	1686.64032	395.43922	-207.05957	1385.02472	194.88298	-273.44000	1084.16725	243.28911	-212.93224	1086.09390	296.70969	-297.98243	1134.58092	295.53274	-418.53230	1028.94974	467.17937	-451.02711	1065.87463	451.20762	-434.99073	1104.16000	469.85260	27.75668	1511.08215	546.31805	193.82063	1225.26306	586.09863	127.30787	1286.95221	547.98004	141.99158	1270.15671	655.04967	-72.74805	1196.92406	608.40008	-81.94014	1247.67685	620.63751	-73.90174	1263.57826	576.09692	-95.64608	875.72113	244.31383	80.63702	908.61183	612.14012	-231.43482	461.76949	332.18639	-134.83449	487.88715	265.72514	-123.21690	450.18864	375.06615	-37.93844	444.55456	526.31248	33.73119	465.18711	446.55392	58.93952	473.62930	564.38118	-221.70858	162.49678	273.54263	-156.36114	152.89095	304.78704	-173.90074	159.32327	229.15956	28.09146	129.48736	522.54864	87.50842	138.63515	448.55568	12.98030	139.33698	453.50098	-24.66761	1020.80933	578.79436	-156.76178	981.60431	398.51635 
54	11.383	-1044.56512	969.41811	563.12885	-937.72469	985.17509	775.56633	-1123.69705	1048.54355	828.02544	-1209.64470	1036.57127	653.28346	-947.04597	1436.85242	582.93751	-1036.78429	1503.37891	636.04553	-838.47939	1604.85077	566.55605	-994.30817	1616.13632	680.41611	-864.69284	1401.18576	783.52921	-732.03514	1174.02596	776.39053	-770.52437	1110.87074	777.17155	-751.05728	1161.02386	704.81255	-560.12199	1053.64632	607.94056	-532.74174	1087.52945	619.79183	-546.89289	1117.88185	587.67368	-1138.67432	1385.48660	475.88737	-1161.15295	1072.75864	525.50579	-1158.93333	1098.85452	436.83956	-1223.43735	1073.41797	483.21171	-1142.03705	871.25626	408.84384	-1107.27135	888.68385	391.00555	-1082.20886	885.03044	429.52152	-991.65871	878.58109	865.90691	-949.51607	406.61938	737.40593	-999.44016	436.37306	806.35361	-1032.46666	439.86847	693.16734	-976.39641	416.98643	536.86970	-1059.88441	433.47874	528.62431	-1009.90143	442.26318	640.38597	-1050.38971	161.21977	720.84465	-1123.59367	178.64202	688.63892	-1116.72874	164.11139	760.54886	-1045.15190	159.75793	569.53556	-1038.36113	161.09253	635.08129	-973.49052	171.92091	603.68275	-1024.47090	1609.72153	555.18612	-1151.34247	894.21661	561.38325	31.92095	1038.72025	251.05274	150.90321	1081.85303	459.79561	-175.93945	1462.62787	394.15718	-92.23289	1537.93579	309.88424	-290.58882	1690.58350	337.98485	-153.68439	1637.12997	242.92633	-134.42080	1685.92438	392.36992	-217.30177	1380.40497	191.50639	-274.12331	1079.07303	242.37919	-214.22129	1081.98235	296.33547	-299.46449	1129.83513	294.12334	-420.35271	1033.93524	468.41934	-452.62650	1069.74411	449.97746	-436.57700	1108.82668	466.79928	19.91603	1511.21399	540.95490	188.20578	1225.68413	575.99506	122.24524	1287.03400	538.49045	137.48116	1269.89929	646.17401	-78.08902	1195.79147	604.94457	-87.13816	1246.70784	617.43092	-79.88644	1262.32910	572.63416	-104.97287	876.09138	241.87860	77.68490	909.17145	606.20232	-234.09552	460.04177	328.31532	-135.66066	486.29402	265.01699	-126.37432	449.30931	373.12946	-41.53925	444.26254	525.51453	28.71379	465.07084	444.32236	55.75086	474.35654	561.68060	-223.49936	160.81362	271.81345	-159.19816	151.54047	303.97554	-175.39648	157.54505	227.89362	28.26822	129.60840	522.04155	86.32618	139.19377	447.87380	11.98415	139.19314	453.40679	-28.82823	1020.90088	574.20204	-164.30141	980.94872	396.43097 
